<svg xmlns="http://www.w3.org/2000/svg" xmlns:xlink="http://www.w3.org/1999/xlink" width="70" zoomAndPan="magnify" viewBox="0 0 52.5 42.749999" height="57" preserveAspectRatio="xMidYMid meet" version="1.2"><defs><clipPath id="1ea4e2933e"><path d="M 0 0.078125 L 51.261719 0.078125 L 51.261719 42.425781 L 0 42.425781 Z M 0 0.078125 "/></clipPath></defs><g id="5c5a60b728"><g clip-rule="nonzero" clip-path="url(#1ea4e2933e)"><path style=" stroke:none;fill-rule:nonzero;fill:#ffffff;fill-opacity:1;" d="M 29.722656 0.179688 C 24.378906 0.179688 19.875 3.371094 17.699219 7.894531 C 16.535156 7.089844 15.203125 6.511719 13.691406 6.511719 C 9.882812 6.511719 6.820312 9.527344 6.59375 13.28125 C 2.773438 14.660156 0 18.230469 0 22.511719 C 0 27.976562 4.449219 32.425781 9.914062 32.425781 L 14.351562 32.425781 C 14.492188 32.429688 14.621094 32.40625 14.75 32.355469 C 14.878906 32.300781 14.988281 32.230469 15.085938 32.132812 C 15.183594 32.035156 15.261719 31.925781 15.3125 31.796875 C 15.367188 31.671875 15.394531 31.539062 15.394531 31.402344 C 15.394531 31.265625 15.367188 31.132812 15.3125 31.007812 C 15.261719 30.878906 15.183594 30.769531 15.085938 30.671875 C 14.988281 30.574219 14.878906 30.503906 14.75 30.449219 C 14.621094 30.398438 14.492188 30.375 14.351562 30.378906 L 9.914062 30.378906 C 5.558594 30.378906 2.050781 26.867188 2.050781 22.511719 C 2.050781 18.886719 4.496094 15.859375 7.820312 14.941406 C 8.046875 14.878906 8.230469 14.753906 8.371094 14.5625 C 8.511719 14.371094 8.578125 14.15625 8.570312 13.917969 C 8.566406 13.777344 8.558594 13.703125 8.558594 13.695312 C 8.558594 10.847656 10.84375 8.5625 13.691406 8.5625 C 15.117188 8.5625 16.394531 9.140625 17.324219 10.070312 C 17.449219 10.195312 17.59375 10.28125 17.761719 10.332031 C 17.929688 10.378906 18.097656 10.386719 18.269531 10.347656 C 18.441406 10.3125 18.59375 10.234375 18.722656 10.121094 C 18.855469 10.003906 18.953125 9.867188 19.011719 9.703125 C 20.625 5.34375 24.796875 2.230469 29.722656 2.230469 C 36.050781 2.230469 41.15625 7.335938 41.15625 13.660156 C 41.15625 14.128906 41.117188 14.597656 41.058594 15.078125 C 41.039062 15.222656 41.050781 15.367188 41.097656 15.507812 C 41.140625 15.648438 41.210938 15.773438 41.308594 15.882812 C 41.40625 15.992188 41.519531 16.078125 41.652344 16.136719 C 41.789062 16.199219 41.929688 16.226562 42.074219 16.226562 C 42.199219 16.226562 42.21875 16.226562 42.136719 16.226562 C 46.054688 16.226562 49.210938 19.382812 49.210938 23.300781 C 49.210938 27.222656 46.054688 30.378906 42.136719 30.378906 L 36.910156 30.378906 C 36.769531 30.375 36.640625 30.398438 36.511719 30.449219 C 36.382812 30.503906 36.273438 30.574219 36.175781 30.671875 C 36.078125 30.769531 36 30.878906 35.949219 31.007812 C 35.894531 31.132812 35.867188 31.265625 35.867188 31.402344 C 35.867188 31.539062 35.894531 31.671875 35.949219 31.796875 C 36 31.925781 36.078125 32.035156 36.175781 32.132812 C 36.273438 32.230469 36.382812 32.300781 36.511719 32.355469 C 36.640625 32.40625 36.769531 32.429688 36.910156 32.425781 L 42.136719 32.425781 C 47.164062 32.425781 51.261719 28.332031 51.261719 23.300781 C 51.261719 18.636719 47.683594 14.914062 43.15625 14.382812 C 43.171875 14.140625 43.207031 13.910156 43.207031 13.660156 C 43.207031 6.226562 37.160156 0.179688 29.722656 0.179688 Z M 19.480469 18.675781 L 13.628906 24.527344 C 13.527344 24.621094 13.453125 24.730469 13.398438 24.859375 C 13.34375 24.984375 13.316406 25.117188 13.3125 25.253906 C 13.3125 25.394531 13.335938 25.527344 13.390625 25.652344 C 13.441406 25.78125 13.515625 25.894531 13.613281 25.992188 C 13.710938 26.089844 13.824219 26.164062 13.949219 26.214844 C 14.078125 26.265625 14.210938 26.292969 14.347656 26.289062 C 14.488281 26.289062 14.617188 26.261719 14.746094 26.207031 C 14.871094 26.152344 14.984375 26.074219 15.078125 25.976562 L 18.453125 22.601562 L 18.453125 40.628906 C 18.453125 40.765625 18.476562 40.898438 18.527344 41.027344 C 18.578125 41.152344 18.652344 41.265625 18.75 41.363281 C 18.84375 41.460938 18.957031 41.535156 19.082031 41.589844 C 19.210938 41.644531 19.34375 41.667969 19.480469 41.667969 C 19.617188 41.667969 19.75 41.644531 19.875 41.589844 C 20 41.535156 20.113281 41.460938 20.210938 41.363281 C 20.304688 41.265625 20.378906 41.152344 20.429688 41.027344 C 20.480469 40.898438 20.507812 40.765625 20.503906 40.628906 L 20.503906 22.601562 L 23.878906 25.976562 C 23.976562 26.074219 24.085938 26.152344 24.214844 26.207031 C 24.339844 26.261719 24.472656 26.289062 24.609375 26.289062 C 24.746094 26.292969 24.878906 26.265625 25.007812 26.214844 C 25.136719 26.164062 25.246094 26.089844 25.34375 25.992188 C 25.441406 25.894531 25.519531 25.78125 25.570312 25.652344 C 25.621094 25.527344 25.648438 25.394531 25.644531 25.253906 C 25.644531 25.117188 25.617188 24.984375 25.5625 24.859375 C 25.507812 24.730469 25.429688 24.621094 25.332031 24.527344 Z M 31.765625 19.085938 C 31.628906 19.085938 31.5 19.117188 31.375 19.167969 C 31.25 19.222656 31.140625 19.300781 31.046875 19.394531 C 30.953125 19.492188 30.878906 19.605469 30.828125 19.730469 C 30.78125 19.859375 30.753906 19.988281 30.757812 20.125 L 30.757812 38.15625 L 27.382812 34.777344 C 27.179688 34.570312 26.933594 34.46875 26.644531 34.46875 C 26.4375 34.46875 26.246094 34.527344 26.074219 34.644531 C 25.902344 34.757812 25.773438 34.914062 25.695312 35.109375 C 25.617188 35.300781 25.601562 35.5 25.644531 35.703125 C 25.6875 35.90625 25.78125 36.082031 25.929688 36.226562 L 31.78125 42.078125 L 37.632812 36.226562 C 37.734375 36.132812 37.808594 36.023438 37.863281 35.894531 C 37.917969 35.769531 37.945312 35.636719 37.949219 35.5 C 37.949219 35.359375 37.925781 35.226562 37.871094 35.101562 C 37.820312 34.972656 37.746094 34.859375 37.648438 34.761719 C 37.550781 34.667969 37.4375 34.589844 37.3125 34.539062 C 37.183594 34.488281 37.050781 34.460938 36.914062 34.464844 C 36.773438 34.464844 36.644531 34.492188 36.515625 34.546875 C 36.390625 34.601562 36.277344 34.679688 36.183594 34.777344 L 32.808594 38.15625 L 32.808594 20.125 C 32.808594 19.984375 32.785156 19.851562 32.730469 19.722656 C 32.679688 19.597656 32.605469 19.484375 32.507812 19.386719 C 32.410156 19.285156 32.296875 19.210938 32.167969 19.160156 C 32.039062 19.109375 31.90625 19.082031 31.765625 19.085938 Z M 31.765625 19.085938 "/><path style=" stroke:none;fill-rule:nonzero;fill:#ffffff;fill-opacity:1;" d="M 29.722656 0.179688 C 24.378906 0.179688 19.875 3.371094 17.699219 7.894531 C 16.535156 7.089844 15.203125 6.511719 13.691406 6.511719 C 9.882812 6.511719 6.820312 9.527344 6.59375 13.28125 C 2.773438 14.660156 0 18.230469 0 22.511719 C 0 27.976562 4.449219 32.425781 9.914062 32.425781 L 14.351562 32.425781 C 14.492188 32.429688 14.621094 32.40625 14.75 32.355469 C 14.878906 32.300781 14.988281 32.230469 15.085938 32.132812 C 15.183594 32.035156 15.261719 31.925781 15.3125 31.796875 C 15.367188 31.671875 15.394531 31.539062 15.394531 31.402344 C 15.394531 31.265625 15.367188 31.132812 15.3125 31.007812 C 15.261719 30.878906 15.183594 30.769531 15.085938 30.671875 C 14.988281 30.574219 14.878906 30.503906 14.75 30.449219 C 14.621094 30.398438 14.492188 30.375 14.351562 30.378906 L 9.914062 30.378906 C 5.558594 30.378906 2.050781 26.867188 2.050781 22.511719 C 2.050781 18.886719 4.496094 15.859375 7.820312 14.941406 C 8.046875 14.878906 8.230469 14.753906 8.371094 14.5625 C 8.511719 14.371094 8.578125 14.15625 8.570312 13.917969 C 8.566406 13.777344 8.558594 13.703125 8.558594 13.695312 C 8.558594 10.847656 10.84375 8.5625 13.691406 8.5625 C 15.117188 8.5625 16.394531 9.140625 17.324219 10.070312 C 17.449219 10.195312 17.59375 10.28125 17.761719 10.332031 C 17.929688 10.378906 18.097656 10.386719 18.269531 10.347656 C 18.441406 10.3125 18.59375 10.234375 18.722656 10.121094 C 18.855469 10.003906 18.953125 9.867188 19.011719 9.703125 C 20.625 5.34375 24.796875 2.230469 29.722656 2.230469 C 36.050781 2.230469 41.15625 7.335938 41.15625 13.660156 C 41.15625 14.128906 41.117188 14.597656 41.058594 15.078125 C 41.039062 15.222656 41.050781 15.367188 41.097656 15.507812 C 41.140625 15.648438 41.210938 15.773438 41.308594 15.882812 C 41.40625 15.992188 41.519531 16.078125 41.652344 16.136719 C 41.789062 16.199219 41.929688 16.226562 42.074219 16.226562 C 42.199219 16.226562 42.21875 16.226562 42.136719 16.226562 C 46.054688 16.226562 49.210938 19.382812 49.210938 23.300781 C 49.210938 27.222656 46.054688 30.378906 42.136719 30.378906 L 36.910156 30.378906 C 36.769531 30.375 36.640625 30.398438 36.511719 30.449219 C 36.382812 30.503906 36.273438 30.574219 36.175781 30.671875 C 36.078125 30.769531 36 30.878906 35.949219 31.007812 C 35.894531 31.132812 35.867188 31.265625 35.867188 31.402344 C 35.867188 31.539062 35.894531 31.671875 35.949219 31.796875 C 36 31.925781 36.078125 32.035156 36.175781 32.132812 C 36.273438 32.230469 36.382812 32.300781 36.511719 32.355469 C 36.640625 32.40625 36.769531 32.429688 36.910156 32.425781 L 42.136719 32.425781 C 47.164062 32.425781 51.261719 28.332031 51.261719 23.300781 C 51.261719 18.636719 47.683594 14.914062 43.15625 14.382812 C 43.171875 14.140625 43.207031 13.910156 43.207031 13.660156 C 43.207031 6.226562 37.160156 0.179688 29.722656 0.179688 Z M 19.480469 18.675781 L 13.628906 24.527344 C 13.527344 24.621094 13.453125 24.730469 13.398438 24.859375 C 13.34375 24.984375 13.316406 25.117188 13.3125 25.253906 C 13.3125 25.394531 13.335938 25.527344 13.390625 25.652344 C 13.441406 25.78125 13.515625 25.894531 13.613281 25.992188 C 13.710938 26.089844 13.824219 26.164062 13.949219 26.214844 C 14.078125 26.265625 14.210938 26.292969 14.347656 26.289062 C 14.488281 26.289062 14.617188 26.261719 14.746094 26.207031 C 14.871094 26.152344 14.984375 26.074219 15.078125 25.976562 L 18.453125 22.601562 L 18.453125 40.628906 C 18.453125 40.765625 18.476562 40.898438 18.527344 41.027344 C 18.578125 41.152344 18.652344 41.265625 18.75 41.363281 C 18.84375 41.460938 18.957031 41.535156 19.082031 41.589844 C 19.210938 41.644531 19.34375 41.667969 19.480469 41.667969 C 19.617188 41.667969 19.75 41.644531 19.875 41.589844 C 20 41.535156 20.113281 41.460938 20.210938 41.363281 C 20.304688 41.265625 20.378906 41.152344 20.429688 41.027344 C 20.480469 40.898438 20.507812 40.765625 20.503906 40.628906 L 20.503906 22.601562 L 23.878906 25.976562 C 23.976562 26.074219 24.085938 26.152344 24.214844 26.207031 C 24.339844 26.261719 24.472656 26.289062 24.609375 26.289062 C 24.746094 26.292969 24.878906 26.265625 25.007812 26.214844 C 25.136719 26.164062 25.246094 26.089844 25.34375 25.992188 C 25.441406 25.894531 25.519531 25.78125 25.570312 25.652344 C 25.621094 25.527344 25.648438 25.394531 25.644531 25.253906 C 25.644531 25.117188 25.617188 24.984375 25.5625 24.859375 C 25.507812 24.730469 25.429688 24.621094 25.332031 24.527344 Z M 31.765625 19.085938 C 31.628906 19.085938 31.5 19.117188 31.375 19.167969 C 31.25 19.222656 31.140625 19.300781 31.046875 19.394531 C 30.953125 19.492188 30.878906 19.605469 30.828125 19.730469 C 30.78125 19.859375 30.753906 19.988281 30.757812 20.125 L 30.757812 38.15625 L 27.382812 34.777344 C 27.179688 34.570312 26.933594 34.46875 26.644531 34.46875 C 26.4375 34.46875 26.246094 34.527344 26.074219 34.644531 C 25.902344 34.757812 25.773438 34.914062 25.695312 35.109375 C 25.617188 35.300781 25.601562 35.5 25.644531 35.703125 C 25.6875 35.90625 25.78125 36.082031 25.929688 36.226562 L 31.78125 42.078125 L 37.632812 36.226562 C 37.734375 36.132812 37.808594 36.023438 37.863281 35.894531 C 37.917969 35.769531 37.945312 35.636719 37.949219 35.5 C 37.949219 35.359375 37.925781 35.226562 37.871094 35.101562 C 37.820312 34.972656 37.746094 34.859375 37.648438 34.761719 C 37.550781 34.667969 37.4375 34.589844 37.3125 34.539062 C 37.183594 34.488281 37.050781 34.460938 36.914062 34.464844 C 36.773438 34.464844 36.644531 34.492188 36.515625 34.546875 C 36.390625 34.601562 36.277344 34.679688 36.183594 34.777344 L 32.808594 38.15625 L 32.808594 20.125 C 32.808594 19.984375 32.785156 19.851562 32.730469 19.722656 C 32.679688 19.597656 32.605469 19.484375 32.507812 19.386719 C 32.410156 19.285156 32.296875 19.210938 32.167969 19.160156 C 32.039062 19.109375 31.90625 19.082031 31.765625 19.085938 Z M 31.765625 19.085938 "/></g></g></svg>